<?xml version="1.0" encoding="utf-8"?>
<!-- Generator: Adobe Illustrator 24.0.3, SVG Export Plug-In . SVG Version: 6.00 Build 0)  -->
<svg version="1.1" id="Layer_1" xmlns="http://www.w3.org/2000/svg" xmlns:xlink="http://www.w3.org/1999/xlink" x="0px" y="0px"
	 viewBox="0 0 790.5 91" style="enable-background:new 0 0 790.5 91;" xml:space="preserve">
<style type="text/css">
	.st0{fill:#376E80;}
</style>
<title>logo-with-new-slogan-blue</title>
<desc>Created with Sketch.</desc>
<g id="Style-Guide-v1">
	<g id="Neuro-ID---Style-Guide---web-version-1" transform="translate(-573.000000, -3714.000000)">
		<g id="logo-with-new-slogan-blue" transform="translate(566.000000, 3708.000000)">
			<g>
				<g id="LOGO-AND-SLOGAN" transform="translate(8.000000, 0.000000)">
					<g id="logo-solid">
						<path id="Fill-1" class="st0" d="M111.3,96.5c-1.4,0-2.8-0.5-3.9-1.3l-95-69.1V90c0,3.8-3,6.8-6.7,6.8S-1,93.7-1,90V12.7
							C-1,9,2.1,6,5.7,6c1.4,0,2.7,0.5,3.9,1.3l95,69.1V12.8c0-3.8,3-6.8,6.7-6.8s6.7,3,6.7,6.8v76.9C118,93.5,115,96.5,111.3,96.5
							L111.3,96.5z"/>
						<path id="Fill-3" class="st0" d="M223.2,32.4h-85.4c-3.7,0-6.7-3-6.7-6.8s3-6.8,6.7-6.8h85.4c3.7,0,6.7,3,6.7,6.8
							C229.9,29.4,226.9,32.4,223.2,32.4"/>
						<path id="Fill-5" class="st0" d="M223.2,96.6h-85.4c-3.7,0-6.7-3-6.7-6.8V57.5c0-3.7,3-6.8,6.7-6.8h85.4c3.7,0,6.7,3,6.7,6.8
							s-3,6.8-6.7,6.8h-78.7V83h78.7c3.7,0,6.7,3,6.7,6.8C229.9,93.6,226.9,96.7,223.2,96.6L223.2,96.6z"/>
						<path id="Fill-7" class="st0" d="M318.7,96.8h-51.2c-13.4,0-24.2-11-24.2-24.6V25.6c0-3.8,3-6.8,6.7-6.8s6.7,3,6.7,6.8v46.5
							c0,6.1,4.8,11.1,10.8,11.1l0,0h51.2c6,0,10.8-4.9,10.8-11V25.6c0-3.8,3-6.8,6.7-6.8s6.7,3,6.7,6.8v46.5
							C342.9,85.7,332,96.7,318.7,96.8"/>
						<path id="Fill-9" class="st0" d="M482.3,32.4c-6,0-10.8,4.9-10.8,11v28.7c-0.1,6.1,4.7,11.1,10.7,11.2h0.1H531
							c6,0,10.8-4.9,10.8-11V43.4c0-6.1-4.8-11-10.8-11H482.3z M530.9,96.8h-48.7c-13.4,0-24.2-11-24.2-24.6V43.4
							c0-13.6,10.9-24.5,24.2-24.6h48.7c13.4,0,24.2,11,24.2,24.6v28.7C555.1,85.8,544.3,96.7,530.9,96.8L530.9,96.8z"/>
						<path id="Fill-11" class="st0" d="M675.6,83.3h59.5c6,0,10.8-4.9,10.8-11V43.4c0-6.1-4.9-11-10.8-11h-59.5V83.3z M735.2,96.8
							H669c-3.7,0-6.7-3-6.8-6.8l0,0V25.6c0.1-3.7,3.1-6.7,6.8-6.7h66.2c13.3,0,24.2,11,24.2,24.6v28.7
							C759.3,85.7,748.5,96.7,735.2,96.8L735.2,96.8z"/>
						<path id="Fill-13" class="st0" d="M642.2,96.5c-3.7,0-6.6-3-6.7-6.8V25.3c0-3.8,3-6.8,6.7-6.8s6.7,3,6.7,6.8v64.4
							C648.9,93.5,645.9,96.5,642.2,96.5"/>
						<path id="Fill-15" class="st0" d="M615.4,64.4h-40.2c-3.7,0-6.7-3-6.7-6.8s3-6.8,6.7-6.8h40.2c3.7,0,6.7,3,6.7,6.8
							C622.1,61.3,619.1,64.4,615.4,64.4"/>
						<g id="Group-19" transform="translate(357.247225, 18.607216)">
							<path id="Fill-17" class="st0" d="M87.4,23.1c0-12.6-10.1-22.8-22.5-22.8H5.8c-3.7,0-6.7,3-6.7,6.8s3,6.8,6.7,6.8h59.1
								c5,0,9.1,4.2,9.1,9.3c0,5-4,9-8.9,9c-0.1,0-0.1,0-0.2,0H5.8c-3.7,0-6.7,3-6.7,6.8v32.6c0,3.8,3,6.8,6.7,6.8s6.7-3,6.7-6.8
								V45.8H65c5,0,9.1,4.2,9.1,9.3v16.4c0,3.8,3,6.8,6.7,6.8s6.7-3,6.7-6.8V54.9c0-6-2.3-11.7-6.3-16C85.2,34.7,87.5,29,87.4,23.1
								"/>
						</g>
					</g>
				</g>
			</g>
		</g>
	</g>
</g>
<g>
	<path class="st0" d="M775,21.1c0-4.4,3.5-7.8,7.8-7.8c4.4,0,7.8,3.5,7.8,7.8c0,4.3-3.5,7.8-7.8,7.8C778.6,29,775,25.4,775,21.1z
		 M776.1,21.1c0,3.7,3,6.8,6.8,6.8c3.7,0,6.7-3.1,6.7-6.8c0-3.8-3-6.7-6.7-6.7C779.1,14.4,776.1,17.4,776.1,21.1z M782.7,22.1h-1.6
		v3.5h-1.2v-9h3.7c1.5,0,2.8,1.1,2.8,2.7c0,2-1.8,2.7-2.3,2.7l2.4,3.6H785L782.7,22.1z M781.1,17.7V21h2.5c0.8,0,1.6-0.7,1.6-1.6
		c0-1-0.8-1.7-1.6-1.7H781.1z"/>
</g>
</svg>
